Coordinates
version=1
nRows=13
nColumns=34
inDegrees=yes

Units are S.I. units (second, meters, Newtons, ...)
If the header above contains a line with 'inDegrees', this indicates whether rotational values are in degrees (yes) or radians (no).

endheader
time	pelvis_tilt	pelvis_list	pelvis_rotation	pelvis_tx	pelvis_ty	pelvis_tz	hip_flexion_r	hip_adduction_r	hip_rotation_r	knee_angle_r	ankle_angle_r	subtalar_angle_r	mtp_angle_r	hip_flexion_l	hip_adduction_l	hip_rotation_l	knee_angle_l	ankle_angle_l	subtalar_angle_l	mtp_angle_l	lumbar_extension	lumbar_bending	lumbar_rotation	arm_flex_r	arm_add_r	arm_rot_r	elbow_flex_r	pro_sup_r	arm_flex_l	arm_add_l	arm_rot_l	elbow_flex_l	pro_sup_l
      5.95000000	      2.44309603	     -7.50645253	    -65.45600042	      2.26153207	      0.99860747	      6.30365241	    -26.04952293	      3.39746962	      1.74241559	      4.68703656	     16.29428235	      0.77801592	      0.00000000	     20.22874619	      3.81935376	     -6.97997130	      6.61643650	      0.97819353	     -0.81099465	      0.00000000	    -12.43779134	      1.51814005	     15.04720826	     27.44487373	    -13.31291417	      8.93828053	     42.83601737	    119.74817918	     -3.86714450	    -14.49776112	     -9.67869473	     14.81189823	    105.29309971
      5.96666670	      2.26995590	     -7.49398803	    -65.57714498	      2.27039973	      0.99388772	      6.32512075	    -26.84006175	      3.52007536	      1.93426743	      5.88227439	     16.36820866	      0.97997026	      0.00000000	     20.25000849	      3.82804193	     -7.38617066	      8.03619636	      0.45883540	     -2.52690916	      0.00000000	    -12.32635505	      1.75263010	     15.37193229	     26.61445140	    -12.63301317	      7.42998639	     42.98921780	    119.74817918	     -4.29251040	    -14.25712002	    -13.37550649	     15.25205817	    105.77505140
      5.98333330	      2.31636228	     -7.42954654	    -65.34691900	      2.28168617	      0.99161003	      6.34284963	    -27.56432904	      3.49833298	      1.84696236	      7.38164326	     16.37583675	      0.75578198	      0.00000000	     20.33714936	      4.06213222	     -6.72564035	     10.09271638	     -0.56685134	     -5.11826180	      0.00000000	    -12.19181564	      1.59752789	     15.16655006	     25.92949675	    -12.30680348	      7.68355972	     42.73283714	    119.74817918	     -4.84799674	    -13.73296994	    -18.21982309	     16.73080348	    107.55144084
      6.00000000	      2.65504676	     -7.71474096	    -65.20261398	      2.29317534	      0.99153010	      6.36428363	    -28.49215544	      3.21123511	      1.88754727	      9.31414298	     15.91358739	      0.68941898	      0.00000000	     19.91569118	      4.07166631	     -7.07731788	     12.75379003	     -0.51828130	     -6.02975891	      0.00000000	    -12.41119281	      1.10738817	     14.56412687	     24.66589246	    -11.91532151	      7.57800737	     42.36045146	    119.74817918	     -4.81467010	    -13.85363077	    -18.45316894	     16.55648405	    107.70881522
      6.01666670	      2.54249792	     -7.66763111	    -65.14791876	      2.30545314	      0.99180008	      6.38561601	    -28.31113480	      2.99031559	      1.51600247	     12.26633788	     15.15988663	      1.03896970	      0.00000000	     19.83371697	      4.05228077	     -6.13729035	     15.00328565	     -0.93256096	     -8.53216935	      0.00000000	    -12.02762307	      0.99785453	     14.26369739	     22.60964807	    -11.36931224	      6.22459670	     41.48923359	    119.74817918	     -4.72628838	    -13.58495679	    -20.41896362	     16.76995528	    108.97404086
      6.03333330	      2.75291299	     -7.90541788	    -65.08395957	      2.31626214	      0.99682042	      6.40613893	    -27.98500454	      2.49821065	      0.98900966	     16.06483857	     13.41377629	      1.07524546	      0.00000000	     18.99362244	      4.14320837	     -5.78247229	     16.79819939	     -0.59267111	     -9.59515112	      0.00000000	    -12.27294846	      0.64542586	     13.65840168	     21.03371617	    -10.87722913	      5.96820440	     39.55296788	    119.74817918	     -4.43769199	    -13.46579669	    -20.96975428	     16.97009907	    109.50103705
      6.05000000	      3.02632722	     -7.99934115	    -65.06266900	      2.32841520	      1.00154565	      6.42605302	    -26.71787427	      1.67898713	     -0.12179423	     21.05781414	     10.71007682	      1.29522389	      0.00000000	     17.95348925	      4.53483793	     -5.19936343	     18.01713527	      0.06948014	    -10.85290730	      0.00000000	    -12.09378440	      0.45387515	     13.13926943	     19.09827442	    -10.62489954	      5.21024265	     37.10177710	    119.74817918	     -4.18091776	    -13.30874630	    -21.55901029	     17.10392232	    109.99569237
      6.06666670	      3.15103161	     -7.82270167	    -65.01413482	      2.34047316	      1.00377320	      6.44489443	    -24.72627148	      0.61347171	     -1.85158497	     26.60833015	      8.20346465	      2.36066807	      0.00000000	     17.33828191	      5.09917707	     -4.03682447	     19.39233723	      0.75482920	    -12.98117281	      0.00000000	    -11.71930626	      0.31546480	     12.46516178	     16.96304542	    -10.47503842	      4.50670981	     35.13349061	    119.74817918	     -3.90880006	    -13.03015551	    -22.69072174	     17.50331957	    111.31709663
      6.08333330	      3.73343254	     -7.86318580	    -64.88819923	      2.35242847	      1.00652758	      6.46347744	    -22.11211914	     -0.87321023	     -2.82653456	     33.87099350	      4.19696751	      1.63868316	      0.00000000	     15.82437813	      5.92188819	     -3.57030258	     19.99865480	      1.83120493	    -13.53592015	      0.00000000	    -11.78149393	     -0.24526469	     11.87284394	     15.49887982	    -10.28544117	      4.17801303	     32.31683607	    119.74817918	     -3.36688863	    -12.78614443	    -22.71419881	     17.63786781	    111.81971271
      6.10000000	      4.08878228	     -7.41926243	    -65.09375094	      2.36515714	      1.00771616	      6.48050244	    -17.64107460	     -2.75289007	     -3.48472743	     42.92177265	      0.63213845	      1.09612531	      0.00000000	     14.66403894	      6.83982464	     -3.24679267	     20.14715243	      2.92093873	    -14.52066415	      0.00000000	    -11.44562406	     -0.70984353	     11.34802995	     14.06001854	    -10.28788273	      4.13783411	     29.79571295	    119.74817918	     -2.71066811	    -12.49744415	    -21.96723241	     17.71200229	    113.06631848
      6.11666670	      4.49680482	     -7.22020914	    -64.98261098	      2.37708525	      1.00927698	      6.49742808	    -14.48223787	     -4.04013570	     -3.64430199	     49.23016143	     -1.52675301	     -0.04513521	      0.00000000	     13.22963662	      7.68862846	     -2.90582769	     20.28262002	      3.97424449	    -14.71791549	      0.00000000	    -11.39008177	     -1.16243673	     10.52428058	     12.92299869	     -9.94826617	      4.03341868	     26.92188566	    119.74817918	     -1.71967885	    -11.99930218	    -20.54530874	     17.68260015	    114.47020216
      6.13333330	      4.94808408	     -7.26267691	    -64.60218594	      2.38873558	      1.00986852	      6.51141038	    -12.59043129	     -4.85706796	     -3.78654200	     53.61945655	     -2.22459824	     -1.38272472	      0.00000000	     11.70003049	      8.41294482	     -2.36089533	     20.65365279	      5.14140220	    -14.52184242	      0.00000000	    -11.65798878	     -1.34457006	      9.37650035	     11.72841380	     -9.55952758	      3.76504829	     24.40453994	    119.74817918	     -1.10411523	    -11.19180196	    -19.85631953	     17.40349335	    114.96065326
      6.15000000	      5.43909261	     -7.30130570	    -64.45949613	      2.39977643	      1.01143946	      6.52547859	    -10.62432551	     -5.59752275	     -3.84802313	     57.37811920	     -2.22525343	     -2.58164989	      0.00000000	      9.84556808	      9.06904361	     -2.11926319	     20.16677903	      6.04149694	    -14.00285502	      0.00000000	    -11.55188036	     -1.58445232	      8.26982748	     10.56544300	     -9.16335527	      3.60756406	     22.38384984	    119.74817918	     -0.70539577	    -10.48745621	    -18.84456960	     17.19559798	    115.54088207
